# xmcd
#
# Track frame offsets:
#	150
#	17377
#	49246
#	68182
#	89262
#	109309
#	124172
#	144543
#	162691
#	182893
#
# Disc length: 2588 seconds
#
# Revision: 0
# Processed by: cddbd v1.5.2PL0 Copyright (c) Steve Scherf et al.
# Submitted via: audiograbber 1.83.01
#
DISCID=8e0a1a0a
DTITLE=Little Louis Bluesband - Hangin' in the Alley
DYEAR=2002
DGENRE=Blues
TTITLE0=Walking Bum
TTITLE1=Burning Hell
TTITLE2=Icewater
TTITLE3=The Revelator
TTITLE4=John Henry
TTITLE5=Parchman Farm
TTITLE6=Brujo
TTITLE7=Jungle and Jazz
TTITLE8=Ride
TTITLE9=My Gal
EXTD=Little Louis Bluesband:\nSimon van der Wulp: Upright Bass\n"Little Louis v
EXTD=an Empel: Vocal, Guitar\nGabriel Peeters: Drums\nAart van der Wulp: Harmon
EXTD=ica\n\nRecorded live at "De Kroon", Valkenswaard on the 9th of May 2002\nA
EXTD=vailable on CD and LP 33 1/3 RPM
EXTT0=
EXTT1=
EXTT2=
EXTT3=
EXTT4=
EXTT5=
EXTT6=
EXTT7=
EXTT8=
EXTT9=
PLAYORDER=
